<?xml version="1.0" encoding="utf-8" standalone="no"?>
<!DOCTYPE svg PUBLIC "-//W3C//DTD SVG 1.1//EN"
  "http://www.w3.org/Graphics/SVG/1.1/DTD/svg11.dtd">
<!-- Created with matplotlib (https://matplotlib.org/) -->
<svg height="1152pt" version="1.1" viewBox="0 0 864 1152" width="864pt" xmlns="http://www.w3.org/2000/svg" xmlns:xlink="http://www.w3.org/1999/xlink">
 <metadata>
  <rdf:RDF xmlns:cc="http://creativecommons.org/ns#" xmlns:dc="http://purl.org/dc/elements/1.1/" xmlns:rdf="http://www.w3.org/1999/02/22-rdf-syntax-ns#">
   <cc:Work>
    <dc:type rdf:resource="http://purl.org/dc/dcmitype/StillImage"/>
    <dc:date>2021-01-06T21:29:45.672941</dc:date>
    <dc:format>image/svg+xml</dc:format>
    <dc:creator>
     <cc:Agent>
      <dc:title>Matplotlib v3.3.3, https://matplotlib.org/</dc:title>
     </cc:Agent>
    </dc:creator>
   </cc:Work>
  </rdf:RDF>
 </metadata>
 <defs>
  <style type="text/css">*{stroke-linecap:butt;stroke-linejoin:round;}</style>
 </defs>
 <g id="figure_1">
  <g id="patch_1">
   <path d="M 0 1152 
L 864 1152 
L 864 0 
L 0 0 
z
"/>
  </g>
  <g id="axes_1">
   <g id="patch_2">
    <path d="M 38.86 331.56703 
L 853.2 331.56703 
L 853.2 26.88 
L 38.86 26.88 
z
"/>
   </g>
   <g id="matplotlib.axis_1">
    <g id="xtick_1">
     <g id="line2d_1">
      <defs>
       <path d="M 0 0 
L 0 3.5 
" id="m4c939577d1" style="stroke:#ffffff;stroke-width:0.8;"/>
      </defs>
      <g>
       <use style="fill:#ffffff;stroke:#ffffff;stroke-width:0.8;" x="75.875455" xlink:href="#m4c939577d1" y="331.56703"/>
      </g>
     </g>
     <g id="text_1">
      <!-- 0 -->
      <g style="fill:#ffffff;" transform="translate(72.694205 346.165468)scale(0.1 -0.1)">
       <defs>
        <path d="M 31.78125 66.40625 
Q 24.171875 66.40625 20.328125 58.90625 
Q 16.5 51.421875 16.5 36.375 
Q 16.5 21.390625 20.328125 13.890625 
Q 24.171875 6.390625 31.78125 6.390625 
Q 39.453125 6.390625 43.28125 13.890625 
Q 47.125 21.390625 47.125 36.375 
Q 47.125 51.421875 43.28125 58.90625 
Q 39.453125 66.40625 31.78125 66.40625 
z
M 31.78125 74.21875 
Q 44.046875 74.21875 50.515625 64.515625 
Q 56.984375 54.828125 56.984375 36.375 
Q 56.984375 17.96875 50.515625 8.265625 
Q 44.046875 -1.421875 31.78125 -1.421875 
Q 19.53125 -1.421875 13.0625 8.265625 
Q 6.59375 17.96875 6.59375 36.375 
Q 6.59375 54.828125 13.0625 64.515625 
Q 19.53125 74.21875 31.78125 74.21875 
z
" id="DejaVuSans-48"/>
       </defs>
       <use xlink:href="#DejaVuSans-48"/>
      </g>
     </g>
    </g>
    <g id="xtick_2">
     <g id="line2d_2">
      <g>
       <use style="fill:#ffffff;stroke:#ffffff;stroke-width:0.8;" x="199.672961" xlink:href="#m4c939577d1" y="331.56703"/>
      </g>
     </g>
     <g id="text_2">
      <!-- 50 -->
      <g style="fill:#ffffff;" transform="translate(193.310461 346.165468)scale(0.1 -0.1)">
       <defs>
        <path d="M 10.796875 72.90625 
L 49.515625 72.90625 
L 49.515625 64.59375 
L 19.828125 64.59375 
L 19.828125 46.734375 
Q 21.96875 47.46875 24.109375 47.828125 
Q 26.265625 48.1875 28.421875 48.1875 
Q 40.625 48.1875 47.75 41.5 
Q 54.890625 34.8125 54.890625 23.390625 
Q 54.890625 11.625 47.5625 5.09375 
Q 40.234375 -1.421875 26.90625 -1.421875 
Q 22.3125 -1.421875 17.546875 -0.640625 
Q 12.796875 0.140625 7.71875 1.703125 
L 7.71875 11.625 
Q 12.109375 9.234375 16.796875 8.0625 
Q 21.484375 6.890625 26.703125 6.890625 
Q 35.15625 6.890625 40.078125 11.328125 
Q 45.015625 15.765625 45.015625 23.390625 
Q 45.015625 31 40.078125 35.4375 
Q 35.15625 39.890625 26.703125 39.890625 
Q 22.75 39.890625 18.8125 39.015625 
Q 14.890625 38.140625 10.796875 36.28125 
z
" id="DejaVuSans-53"/>
       </defs>
       <use xlink:href="#DejaVuSans-53"/>
       <use x="63.623047" xlink:href="#DejaVuSans-48"/>
      </g>
     </g>
    </g>
    <g id="xtick_3">
     <g id="line2d_3">
      <g>
       <use style="fill:#ffffff;stroke:#ffffff;stroke-width:0.8;" x="323.470468" xlink:href="#m4c939577d1" y="331.56703"/>
      </g>
     </g>
     <g id="text_3">
      <!-- 100 -->
      <g style="fill:#ffffff;" transform="translate(313.926718 346.165468)scale(0.1 -0.1)">
       <defs>
        <path d="M 12.40625 8.296875 
L 28.515625 8.296875 
L 28.515625 63.921875 
L 10.984375 60.40625 
L 10.984375 69.390625 
L 28.421875 72.90625 
L 38.28125 72.90625 
L 38.28125 8.296875 
L 54.390625 8.296875 
L 54.390625 0 
L 12.40625 0 
z
" id="DejaVuSans-49"/>
       </defs>
       <use xlink:href="#DejaVuSans-49"/>
       <use x="63.623047" xlink:href="#DejaVuSans-48"/>
       <use x="127.246094" xlink:href="#DejaVuSans-48"/>
      </g>
     </g>
    </g>
    <g id="xtick_4">
     <g id="line2d_4">
      <g>
       <use style="fill:#ffffff;stroke:#ffffff;stroke-width:0.8;" x="447.267975" xlink:href="#m4c939577d1" y="331.56703"/>
      </g>
     </g>
     <g id="text_4">
      <!-- 150 -->
      <g style="fill:#ffffff;" transform="translate(437.724225 346.165468)scale(0.1 -0.1)">
       <use xlink:href="#DejaVuSans-49"/>
       <use x="63.623047" xlink:href="#DejaVuSans-53"/>
       <use x="127.246094" xlink:href="#DejaVuSans-48"/>
      </g>
     </g>
    </g>
    <g id="xtick_5">
     <g id="line2d_5">
      <g>
       <use style="fill:#ffffff;stroke:#ffffff;stroke-width:0.8;" x="571.065482" xlink:href="#m4c939577d1" y="331.56703"/>
      </g>
     </g>
     <g id="text_5">
      <!-- 200 -->
      <g style="fill:#ffffff;" transform="translate(561.521732 346.165468)scale(0.1 -0.1)">
       <defs>
        <path d="M 19.1875 8.296875 
L 53.609375 8.296875 
L 53.609375 0 
L 7.328125 0 
L 7.328125 8.296875 
Q 12.9375 14.109375 22.625 23.890625 
Q 32.328125 33.6875 34.8125 36.53125 
Q 39.546875 41.84375 41.421875 45.53125 
Q 43.3125 49.21875 43.3125 52.78125 
Q 43.3125 58.59375 39.234375 62.25 
Q 35.15625 65.921875 28.609375 65.921875 
Q 23.96875 65.921875 18.8125 64.3125 
Q 13.671875 62.703125 7.8125 59.421875 
L 7.8125 69.390625 
Q 13.765625 71.78125 18.9375 73 
Q 24.125 74.21875 28.421875 74.21875 
Q 39.75 74.21875 46.484375 68.546875 
Q 53.21875 62.890625 53.21875 53.421875 
Q 53.21875 48.921875 51.53125 44.890625 
Q 49.859375 40.875 45.40625 35.40625 
Q 44.1875 33.984375 37.640625 27.21875 
Q 31.109375 20.453125 19.1875 8.296875 
z
" id="DejaVuSans-50"/>
       </defs>
       <use xlink:href="#DejaVuSans-50"/>
       <use x="63.623047" xlink:href="#DejaVuSans-48"/>
       <use x="127.246094" xlink:href="#DejaVuSans-48"/>
      </g>
     </g>
    </g>
    <g id="xtick_6">
     <g id="line2d_6">
      <g>
       <use style="fill:#ffffff;stroke:#ffffff;stroke-width:0.8;" x="694.862989" xlink:href="#m4c939577d1" y="331.56703"/>
      </g>
     </g>
     <g id="text_6">
      <!-- 250 -->
      <g style="fill:#ffffff;" transform="translate(685.319239 346.165468)scale(0.1 -0.1)">
       <use xlink:href="#DejaVuSans-50"/>
       <use x="63.623047" xlink:href="#DejaVuSans-53"/>
       <use x="127.246094" xlink:href="#DejaVuSans-48"/>
      </g>
     </g>
    </g>
    <g id="xtick_7">
     <g id="line2d_7">
      <g>
       <use style="fill:#ffffff;stroke:#ffffff;stroke-width:0.8;" x="818.660496" xlink:href="#m4c939577d1" y="331.56703"/>
      </g>
     </g>
     <g id="text_7">
      <!-- 300 -->
      <g style="fill:#ffffff;" transform="translate(809.116746 346.165468)scale(0.1 -0.1)">
       <defs>
        <path d="M 40.578125 39.3125 
Q 47.65625 37.796875 51.625 33 
Q 55.609375 28.21875 55.609375 21.1875 
Q 55.609375 10.40625 48.1875 4.484375 
Q 40.765625 -1.421875 27.09375 -1.421875 
Q 22.515625 -1.421875 17.65625 -0.515625 
Q 12.796875 0.390625 7.625 2.203125 
L 7.625 11.71875 
Q 11.71875 9.328125 16.59375 8.109375 
Q 21.484375 6.890625 26.8125 6.890625 
Q 36.078125 6.890625 40.9375 10.546875 
Q 45.796875 14.203125 45.796875 21.1875 
Q 45.796875 27.640625 41.28125 31.265625 
Q 36.765625 34.90625 28.71875 34.90625 
L 20.21875 34.90625 
L 20.21875 43.015625 
L 29.109375 43.015625 
Q 36.375 43.015625 40.234375 45.921875 
Q 44.09375 48.828125 44.09375 54.296875 
Q 44.09375 59.90625 40.109375 62.90625 
Q 36.140625 65.921875 28.71875 65.921875 
Q 24.65625 65.921875 20.015625 65.03125 
Q 15.375 64.15625 9.8125 62.3125 
L 9.8125 71.09375 
Q 15.4375 72.65625 20.34375 73.4375 
Q 25.25 74.21875 29.59375 74.21875 
Q 40.828125 74.21875 47.359375 69.109375 
Q 53.90625 64.015625 53.90625 55.328125 
Q 53.90625 49.265625 50.4375 45.09375 
Q 46.96875 40.921875 40.578125 39.3125 
z
" id="DejaVuSans-51"/>
       </defs>
       <use xlink:href="#DejaVuSans-51"/>
       <use x="63.623047" xlink:href="#DejaVuSans-48"/>
       <use x="127.246094" xlink:href="#DejaVuSans-48"/>
      </g>
     </g>
    </g>
   </g>
   <g id="matplotlib.axis_2">
    <g id="ytick_1">
     <g id="line2d_8">
      <defs>
       <path d="M 0 0 
L -3.5 0 
" id="m75de2ab76b" style="stroke:#ffffff;stroke-width:0.8;"/>
      </defs>
      <g>
       <use style="fill:#ffffff;stroke:#ffffff;stroke-width:0.8;" x="38.86" xlink:href="#m75de2ab76b" y="317.484652"/>
      </g>
     </g>
     <g id="text_8">
      <!-- 0 -->
      <g style="fill:#ffffff;" transform="translate(25.4975 321.28387)scale(0.1 -0.1)">
       <use xlink:href="#DejaVuSans-48"/>
      </g>
     </g>
    </g>
    <g id="ytick_2">
     <g id="line2d_9">
      <g>
       <use style="fill:#ffffff;stroke:#ffffff;stroke-width:0.8;" x="38.86" xlink:href="#m75de2ab76b" y="262.017637"/>
      </g>
     </g>
     <g id="text_9">
      <!-- 20 -->
      <g style="fill:#ffffff;" transform="translate(19.135 265.816856)scale(0.1 -0.1)">
       <use xlink:href="#DejaVuSans-50"/>
       <use x="63.623047" xlink:href="#DejaVuSans-48"/>
      </g>
     </g>
    </g>
    <g id="ytick_3">
     <g id="line2d_10">
      <g>
       <use style="fill:#ffffff;stroke:#ffffff;stroke-width:0.8;" x="38.86" xlink:href="#m75de2ab76b" y="206.550622"/>
      </g>
     </g>
     <g id="text_10">
      <!-- 40 -->
      <g style="fill:#ffffff;" transform="translate(19.135 210.349841)scale(0.1 -0.1)">
       <defs>
        <path d="M 37.796875 64.3125 
L 12.890625 25.390625 
L 37.796875 25.390625 
z
M 35.203125 72.90625 
L 47.609375 72.90625 
L 47.609375 25.390625 
L 58.015625 25.390625 
L 58.015625 17.1875 
L 47.609375 17.1875 
L 47.609375 0 
L 37.796875 0 
L 37.796875 17.1875 
L 4.890625 17.1875 
L 4.890625 26.703125 
z
" id="DejaVuSans-52"/>
       </defs>
       <use xlink:href="#DejaVuSans-52"/>
       <use x="63.623047" xlink:href="#DejaVuSans-48"/>
      </g>
     </g>
    </g>
    <g id="ytick_4">
     <g id="line2d_11">
      <g>
       <use style="fill:#ffffff;stroke:#ffffff;stroke-width:0.8;" x="38.86" xlink:href="#m75de2ab76b" y="151.083608"/>
      </g>
     </g>
     <g id="text_11">
      <!-- 60 -->
      <g style="fill:#ffffff;" transform="translate(19.135 154.882826)scale(0.1 -0.1)">
       <defs>
        <path d="M 33.015625 40.375 
Q 26.375 40.375 22.484375 35.828125 
Q 18.609375 31.296875 18.609375 23.390625 
Q 18.609375 15.53125 22.484375 10.953125 
Q 26.375 6.390625 33.015625 6.390625 
Q 39.65625 6.390625 43.53125 10.953125 
Q 47.40625 15.53125 47.40625 23.390625 
Q 47.40625 31.296875 43.53125 35.828125 
Q 39.65625 40.375 33.015625 40.375 
z
M 52.59375 71.296875 
L 52.59375 62.3125 
Q 48.875 64.0625 45.09375 64.984375 
Q 41.3125 65.921875 37.59375 65.921875 
Q 27.828125 65.921875 22.671875 59.328125 
Q 17.53125 52.734375 16.796875 39.40625 
Q 19.671875 43.65625 24.015625 45.921875 
Q 28.375 48.1875 33.59375 48.1875 
Q 44.578125 48.1875 50.953125 41.515625 
Q 57.328125 34.859375 57.328125 23.390625 
Q 57.328125 12.15625 50.6875 5.359375 
Q 44.046875 -1.421875 33.015625 -1.421875 
Q 20.359375 -1.421875 13.671875 8.265625 
Q 6.984375 17.96875 6.984375 36.375 
Q 6.984375 53.65625 15.1875 63.9375 
Q 23.390625 74.21875 37.203125 74.21875 
Q 40.921875 74.21875 44.703125 73.484375 
Q 48.484375 72.75 52.59375 71.296875 
z
" id="DejaVuSans-54"/>
       </defs>
       <use xlink:href="#DejaVuSans-54"/>
       <use x="63.623047" xlink:href="#DejaVuSans-48"/>
      </g>
     </g>
    </g>
    <g id="ytick_5">
     <g id="line2d_12">
      <g>
       <use style="fill:#ffffff;stroke:#ffffff;stroke-width:0.8;" x="38.86" xlink:href="#m75de2ab76b" y="95.616593"/>
      </g>
     </g>
     <g id="text_12">
      <!-- 80 -->
      <g style="fill:#ffffff;" transform="translate(19.135 99.415812)scale(0.1 -0.1)">
       <defs>
        <path d="M 31.78125 34.625 
Q 24.75 34.625 20.71875 30.859375 
Q 16.703125 27.09375 16.703125 20.515625 
Q 16.703125 13.921875 20.71875 10.15625 
Q 24.75 6.390625 31.78125 6.390625 
Q 38.8125 6.390625 42.859375 10.171875 
Q 46.921875 13.96875 46.921875 20.515625 
Q 46.921875 27.09375 42.890625 30.859375 
Q 38.875 34.625 31.78125 34.625 
z
M 21.921875 38.8125 
Q 15.578125 40.375 12.03125 44.71875 
Q 8.5 49.078125 8.5 55.328125 
Q 8.5 64.0625 14.71875 69.140625 
Q 20.953125 74.21875 31.78125 74.21875 
Q 42.671875 74.21875 48.875 69.140625 
Q 55.078125 64.0625 55.078125 55.328125 
Q 55.078125 49.078125 51.53125 44.71875 
Q 48 40.375 41.703125 38.8125 
Q 48.828125 37.15625 52.796875 32.3125 
Q 56.78125 27.484375 56.78125 20.515625 
Q 56.78125 9.90625 50.3125 4.234375 
Q 43.84375 -1.421875 31.78125 -1.421875 
Q 19.734375 -1.421875 13.25 4.234375 
Q 6.78125 9.90625 6.78125 20.515625 
Q 6.78125 27.484375 10.78125 32.3125 
Q 14.796875 37.15625 21.921875 38.8125 
z
M 18.3125 54.390625 
Q 18.3125 48.734375 21.84375 45.5625 
Q 25.390625 42.390625 31.78125 42.390625 
Q 38.140625 42.390625 41.71875 45.5625 
Q 45.3125 48.734375 45.3125 54.390625 
Q 45.3125 60.0625 41.71875 63.234375 
Q 38.140625 66.40625 31.78125 66.40625 
Q 25.390625 66.40625 21.84375 63.234375 
Q 18.3125 60.0625 18.3125 54.390625 
z
" id="DejaVuSans-56"/>
       </defs>
       <use xlink:href="#DejaVuSans-56"/>
       <use x="63.623047" xlink:href="#DejaVuSans-48"/>
      </g>
     </g>
    </g>
    <g id="ytick_6">
     <g id="line2d_13">
      <g>
       <use style="fill:#ffffff;stroke:#ffffff;stroke-width:0.8;" x="38.86" xlink:href="#m75de2ab76b" y="40.149578"/>
      </g>
     </g>
     <g id="text_13">
      <!-- 100 -->
      <g style="fill:#ffffff;" transform="translate(12.7725 43.948797)scale(0.1 -0.1)">
       <use xlink:href="#DejaVuSans-49"/>
       <use x="63.623047" xlink:href="#DejaVuSans-48"/>
       <use x="127.246094" xlink:href="#DejaVuSans-48"/>
      </g>
     </g>
    </g>
   </g>
   <g id="line2d_14">
    <path clip-path="url(#p4195889e6d)" d="M 75.875455 314.722173 
L 78.351405 314.643012 
L 80.827355 314.216505 
L 83.303305 313.434359 
L 85.779255 312.288188 
L 88.255205 310.769503 
L 90.731155 308.869719 
L 93.207106 306.580148 
L 95.683056 303.891997 
L 98.159006 300.796372 
L 100.634956 297.284266 
L 103.110906 293.346569 
L 105.586856 288.974055 
L 108.062806 284.157386 
L 110.538756 278.887112 
L 113.014707 273.15366 
L 115.490657 266.947342 
L 117.966607 260.258347 
L 120.442557 253.076976 
L 125.394457 237.66746 
L 132.822308 214.492569 
L 137.774208 199.967334 
L 142.726108 186.447257 
L 147.678009 173.972049 
L 152.629909 162.512869 
L 157.581809 152.011844 
L 162.533709 142.400834 
L 167.48561 133.610184 
L 172.43751 125.572663 
L 177.38941 118.225096 
L 182.34131 111.50891 
L 187.293211 105.370166 
L 192.245111 99.759369 
L 197.197011 94.631189 
L 202.148912 89.944148 
L 207.100812 85.660316 
L 212.052712 81.745015 
L 217.004612 78.166544 
L 221.956513 74.895929 
L 226.908413 71.906685 
L 231.860313 69.174607 
L 236.812213 66.67757 
L 241.764114 64.395354 
L 246.716014 62.309479 
L 251.667914 60.403052 
L 259.095765 57.846475 
L 266.523615 55.612611 
L 273.951465 53.660726 
L 281.379316 51.955226 
L 288.807166 50.46501 
L 296.235017 49.162902 
L 306.138817 47.678771 
L 316.042618 46.439016 
L 325.946418 45.403399 
L 338.326169 44.34528 
L 350.70592 43.500265 
L 365.561621 42.707746 
L 382.893272 42.016775 
L 402.700873 41.452496 
L 427.460374 40.980529 
L 447.267975 40.72941 
L 449.743925 41.192608 
L 452.219875 42.742959 
L 454.695825 45.380463 
L 457.171776 49.105121 
L 459.647726 53.916932 
L 462.123676 59.815897 
L 464.599626 66.802015 
L 467.075576 74.875287 
L 469.551526 84.035712 
L 472.027476 94.283291 
L 474.503427 105.618023 
L 476.979377 118.039909 
L 479.455327 131.548948 
L 481.931277 146.145141 
L 484.407227 161.828487 
L 486.883177 178.598987 
L 489.359127 196.45664 
L 491.835078 215.13084 
L 494.311028 232.646148 
L 496.786978 248.602468 
L 499.262928 262.971444 
L 501.738878 275.724109 
L 504.214828 286.83086 
L 506.690778 296.261439 
L 509.166728 303.98491 
L 511.642679 309.969636 
L 514.118629 314.183257 
L 516.594579 316.592663 
L 519.070529 317.188872 
L 526.498379 317.511752 
L 816.184545 317.511752 
L 816.184545 317.511752 
" style="fill:none;stroke:#8dd3c7;stroke-linecap:square;stroke-width:1.5;"/>
   </g>
   <g id="line2d_15">
    <path clip-path="url(#p4195889e6d)" d="M 75.875455 314.744149 
L 80.827355 314.808987 
L 95.683056 315.463334 
L 100.634956 315.380382 
L 105.586856 314.973139 
L 108.062806 314.620662 
L 110.538756 314.15537 
L 113.014707 313.567538 
L 115.490657 312.847734 
L 117.966607 311.986763 
L 120.442557 310.941998 
L 122.918507 307.200497 
L 125.394457 300.20787 
L 127.870407 291.135052 
L 130.346358 280.85505 
L 140.250158 237.359442 
L 145.202058 217.280801 
L 147.678009 207.940375 
L 150.153959 199.082396 
L 152.629909 190.701065 
L 155.105859 182.782493 
L 157.581809 175.308038 
L 160.057759 168.256504 
L 162.533709 161.605588 
L 165.009659 155.332804 
L 167.48561 149.41607 
L 169.96156 143.834062 
L 172.43751 138.56642 
L 174.91346 133.59385 
L 177.38941 128.898165 
L 179.86536 124.462283 
L 182.34131 120.270198 
L 184.817261 116.30694 
L 187.293211 112.55852 
L 192.245111 105.654822 
L 197.197011 99.464726 
L 202.148912 93.906026 
L 207.100812 88.907066 
L 212.052712 84.405302 
L 217.004612 80.34605 
L 221.956513 76.681399 
L 226.908413 73.369287 
L 231.860313 70.372699 
L 236.812213 67.658992 
L 241.764114 65.199308 
L 246.716014 62.968084 
L 251.667914 60.942617 
L 256.619815 59.102708 
L 264.047665 56.651898 
L 271.475515 54.525581 
L 278.903366 52.678872 
L 286.331216 51.073571 
L 293.759067 49.677051 
L 303.662867 48.092071 
L 313.566668 46.773397 
L 323.470468 45.675424 
L 335.850219 44.556812 
L 348.22997 43.66572 
L 363.08567 42.8317 
L 380.417321 42.105826 
L 400.224922 41.513876 
L 424.984424 41.019299 
L 447.267975 40.729635 
L 449.743925 41.489772 
L 452.219875 44.099394 
L 454.695825 48.553774 
L 457.171776 54.842849 
L 459.647726 62.956948 
L 462.123676 72.886766 
L 464.599626 84.623342 
L 467.075576 98.158035 
L 469.551526 113.482511 
L 472.027476 130.588721 
L 474.503427 149.468887 
L 476.979377 170.115486 
L 479.455327 192.521238 
L 481.931277 216.67909 
L 484.407227 242.58221 
L 486.883177 270.223968 
L 489.359127 299.597935 
L 491.835078 317.71762 
L 509.166728 317.501836 
L 519.070529 317.189148 
L 526.498379 317.560949 
L 816.184545 317.560949 
L 816.184545 317.560949 
" style="fill:none;stroke:#feffb3;stroke-dasharray:5.55,2.4;stroke-dashoffset:0;stroke-opacity:0.3;stroke-width:1.5;"/>
   </g>
   <g id="line2d_16">
    <path clip-path="url(#p4195889e6d)" d="M 75.875455 317.484652 
L 816.184545 317.484652 
L 816.184545 317.484652 
" style="fill:none;stroke:#bfbbd9;stroke-dasharray:9.6,2.4,1.5,2.4;stroke-dashoffset:0;stroke-width:1.5;"/>
   </g>
   <g id="patch_3">
    <path d="M 38.86 331.56703 
L 38.86 26.88 
" style="fill:none;stroke:#ffffff;stroke-linecap:square;stroke-linejoin:miter;stroke-width:0.8;"/>
   </g>
   <g id="patch_4">
    <path d="M 853.2 331.56703 
L 853.2 26.88 
" style="fill:none;stroke:#ffffff;stroke-linecap:square;stroke-linejoin:miter;stroke-width:0.8;"/>
   </g>
   <g id="patch_5">
    <path d="M 38.86 331.56703 
L 853.2 331.56703 
" style="fill:none;stroke:#ffffff;stroke-linecap:square;stroke-linejoin:miter;stroke-width:0.8;"/>
   </g>
   <g id="patch_6">
    <path d="M 38.86 26.88 
L 853.2 26.88 
" style="fill:none;stroke:#ffffff;stroke-linecap:square;stroke-linejoin:miter;stroke-width:0.8;"/>
   </g>
   <g id="text_14">
    <!-- altitude -->
    <g style="fill:#ffffff;" transform="translate(423.011562 20.88)scale(0.12 -0.12)">
     <defs>
      <path d="M 34.28125 27.484375 
Q 23.390625 27.484375 19.1875 25 
Q 14.984375 22.515625 14.984375 16.5 
Q 14.984375 11.71875 18.140625 8.90625 
Q 21.296875 6.109375 26.703125 6.109375 
Q 34.1875 6.109375 38.703125 11.40625 
Q 43.21875 16.703125 43.21875 25.484375 
L 43.21875 27.484375 
z
M 52.203125 31.203125 
L 52.203125 0 
L 43.21875 0 
L 43.21875 8.296875 
Q 40.140625 3.328125 35.546875 0.953125 
Q 30.953125 -1.421875 24.3125 -1.421875 
Q 15.921875 -1.421875 10.953125 3.296875 
Q 6 8.015625 6 15.921875 
Q 6 25.140625 12.171875 29.828125 
Q 18.359375 34.515625 30.609375 34.515625 
L 43.21875 34.515625 
L 43.21875 35.40625 
Q 43.21875 41.609375 39.140625 45 
Q 35.0625 48.390625 27.6875 48.390625 
Q 23 48.390625 18.546875 47.265625 
Q 14.109375 46.140625 10.015625 43.890625 
L 10.015625 52.203125 
Q 14.9375 54.109375 19.578125 55.046875 
Q 24.21875 56 28.609375 56 
Q 40.484375 56 46.34375 49.84375 
Q 52.203125 43.703125 52.203125 31.203125 
z
" id="DejaVuSans-97"/>
      <path d="M 9.421875 75.984375 
L 18.40625 75.984375 
L 18.40625 0 
L 9.421875 0 
z
" id="DejaVuSans-108"/>
      <path d="M 18.3125 70.21875 
L 18.3125 54.6875 
L 36.8125 54.6875 
L 36.8125 47.703125 
L 18.3125 47.703125 
L 18.3125 18.015625 
Q 18.3125 11.328125 20.140625 9.421875 
Q 21.96875 7.515625 27.59375 7.515625 
L 36.8125 7.515625 
L 36.8125 0 
L 27.59375 0 
Q 17.1875 0 13.234375 3.875 
Q 9.28125 7.765625 9.28125 18.015625 
L 9.28125 47.703125 
L 2.6875 47.703125 
L 2.6875 54.6875 
L 9.28125 54.6875 
L 9.28125 70.21875 
z
" id="DejaVuSans-116"/>
      <path d="M 9.421875 54.6875 
L 18.40625 54.6875 
L 18.40625 0 
L 9.421875 0 
z
M 9.421875 75.984375 
L 18.40625 75.984375 
L 18.40625 64.59375 
L 9.421875 64.59375 
z
" id="DejaVuSans-105"/>
      <path d="M 8.5 21.578125 
L 8.5 54.6875 
L 17.484375 54.6875 
L 17.484375 21.921875 
Q 17.484375 14.15625 20.5 10.265625 
Q 23.53125 6.390625 29.59375 6.390625 
Q 36.859375 6.390625 41.078125 11.03125 
Q 45.3125 15.671875 45.3125 23.6875 
L 45.3125 54.6875 
L 54.296875 54.6875 
L 54.296875 0 
L 45.3125 0 
L 45.3125 8.40625 
Q 42.046875 3.421875 37.71875 1 
Q 33.40625 -1.421875 27.6875 -1.421875 
Q 18.265625 -1.421875 13.375 4.4375 
Q 8.5 10.296875 8.5 21.578125 
z
M 31.109375 56 
z
" id="DejaVuSans-117"/>
      <path d="M 45.40625 46.390625 
L 45.40625 75.984375 
L 54.390625 75.984375 
L 54.390625 0 
L 45.40625 0 
L 45.40625 8.203125 
Q 42.578125 3.328125 38.25 0.953125 
Q 33.9375 -1.421875 27.875 -1.421875 
Q 17.96875 -1.421875 11.734375 6.484375 
Q 5.515625 14.40625 5.515625 27.296875 
Q 5.515625 40.1875 11.734375 48.09375 
Q 17.96875 56 27.875 56 
Q 33.9375 56 38.25 53.625 
Q 42.578125 51.265625 45.40625 46.390625 
z
M 14.796875 27.296875 
Q 14.796875 17.390625 18.875 11.75 
Q 22.953125 6.109375 30.078125 6.109375 
Q 37.203125 6.109375 41.296875 11.75 
Q 45.40625 17.390625 45.40625 27.296875 
Q 45.40625 37.203125 41.296875 42.84375 
Q 37.203125 48.484375 30.078125 48.484375 
Q 22.953125 48.484375 18.875 42.84375 
Q 14.796875 37.203125 14.796875 27.296875 
z
" id="DejaVuSans-100"/>
      <path d="M 56.203125 29.59375 
L 56.203125 25.203125 
L 14.890625 25.203125 
Q 15.484375 15.921875 20.484375 11.0625 
Q 25.484375 6.203125 34.421875 6.203125 
Q 39.59375 6.203125 44.453125 7.46875 
Q 49.3125 8.734375 54.109375 11.28125 
L 54.109375 2.78125 
Q 49.265625 0.734375 44.1875 -0.34375 
Q 39.109375 -1.421875 33.890625 -1.421875 
Q 20.796875 -1.421875 13.15625 6.1875 
Q 5.515625 13.8125 5.515625 26.8125 
Q 5.515625 40.234375 12.765625 48.109375 
Q 20.015625 56 32.328125 56 
Q 43.359375 56 49.78125 48.890625 
Q 56.203125 41.796875 56.203125 29.59375 
z
M 47.21875 32.234375 
Q 47.125 39.59375 43.09375 43.984375 
Q 39.0625 48.390625 32.421875 48.390625 
Q 24.90625 48.390625 20.390625 44.140625 
Q 15.875 39.890625 15.1875 32.171875 
z
" id="DejaVuSans-101"/>
     </defs>
     <use xlink:href="#DejaVuSans-97"/>
     <use x="61.279297" xlink:href="#DejaVuSans-108"/>
     <use x="89.0625" xlink:href="#DejaVuSans-116"/>
     <use x="128.271484" xlink:href="#DejaVuSans-105"/>
     <use x="156.054688" xlink:href="#DejaVuSans-116"/>
     <use x="195.263672" xlink:href="#DejaVuSans-117"/>
     <use x="258.642578" xlink:href="#DejaVuSans-100"/>
     <use x="322.119141" xlink:href="#DejaVuSans-101"/>
    </g>
   </g>
  </g>
  <g id="axes_2">
   <g id="patch_7">
    <path d="M 38.86 727.843515 
L 427.635 727.843515 
L 427.635 423.156485 
L 38.86 423.156485 
z
"/>
   </g>
   <g id="matplotlib.axis_3">
    <g id="xtick_8">
     <g id="line2d_17">
      <g>
       <use style="fill:#ffffff;stroke:#ffffff;stroke-width:0.8;" x="56.531591" xlink:href="#m4c939577d1" y="727.843515"/>
      </g>
     </g>
     <g id="text_15">
      <!-- 0 -->
      <g style="fill:#ffffff;" transform="translate(53.350341 742.441953)scale(0.1 -0.1)">
       <use xlink:href="#DejaVuSans-48"/>
      </g>
     </g>
    </g>
    <g id="xtick_9">
     <g id="line2d_18">
      <g>
       <use style="fill:#ffffff;stroke:#ffffff;stroke-width:0.8;" x="115.633902" xlink:href="#m4c939577d1" y="727.843515"/>
      </g>
     </g>
     <g id="text_16">
      <!-- 50 -->
      <g style="fill:#ffffff;" transform="translate(109.271402 742.441953)scale(0.1 -0.1)">
       <use xlink:href="#DejaVuSans-53"/>
       <use x="63.623047" xlink:href="#DejaVuSans-48"/>
      </g>
     </g>
    </g>
    <g id="xtick_10">
     <g id="line2d_19">
      <g>
       <use style="fill:#ffffff;stroke:#ffffff;stroke-width:0.8;" x="174.736212" xlink:href="#m4c939577d1" y="727.843515"/>
      </g>
     </g>
     <g id="text_17">
      <!-- 100 -->
      <g style="fill:#ffffff;" transform="translate(165.192462 742.441953)scale(0.1 -0.1)">
       <use xlink:href="#DejaVuSans-49"/>
       <use x="63.623047" xlink:href="#DejaVuSans-48"/>
       <use x="127.246094" xlink:href="#DejaVuSans-48"/>
      </g>
     </g>
    </g>
    <g id="xtick_11">
     <g id="line2d_20">
      <g>
       <use style="fill:#ffffff;stroke:#ffffff;stroke-width:0.8;" x="233.838523" xlink:href="#m4c939577d1" y="727.843515"/>
      </g>
     </g>
     <g id="text_18">
      <!-- 150 -->
      <g style="fill:#ffffff;" transform="translate(224.294773 742.441953)scale(0.1 -0.1)">
       <use xlink:href="#DejaVuSans-49"/>
       <use x="63.623047" xlink:href="#DejaVuSans-53"/>
       <use x="127.246094" xlink:href="#DejaVuSans-48"/>
      </g>
     </g>
    </g>
    <g id="xtick_12">
     <g id="line2d_21">
      <g>
       <use style="fill:#ffffff;stroke:#ffffff;stroke-width:0.8;" x="292.940834" xlink:href="#m4c939577d1" y="727.843515"/>
      </g>
     </g>
     <g id="text_19">
      <!-- 200 -->
      <g style="fill:#ffffff;" transform="translate(283.397084 742.441953)scale(0.1 -0.1)">
       <use xlink:href="#DejaVuSans-50"/>
       <use x="63.623047" xlink:href="#DejaVuSans-48"/>
       <use x="127.246094" xlink:href="#DejaVuSans-48"/>
      </g>
     </g>
    </g>
    <g id="xtick_13">
     <g id="line2d_22">
      <g>
       <use style="fill:#ffffff;stroke:#ffffff;stroke-width:0.8;" x="352.043145" xlink:href="#m4c939577d1" y="727.843515"/>
      </g>
     </g>
     <g id="text_20">
      <!-- 250 -->
      <g style="fill:#ffffff;" transform="translate(342.499395 742.441953)scale(0.1 -0.1)">
       <use xlink:href="#DejaVuSans-50"/>
       <use x="63.623047" xlink:href="#DejaVuSans-53"/>
       <use x="127.246094" xlink:href="#DejaVuSans-48"/>
      </g>
     </g>
    </g>
    <g id="xtick_14">
     <g id="line2d_23">
      <g>
       <use style="fill:#ffffff;stroke:#ffffff;stroke-width:0.8;" x="411.145455" xlink:href="#m4c939577d1" y="727.843515"/>
      </g>
     </g>
     <g id="text_21">
      <!-- 300 -->
      <g style="fill:#ffffff;" transform="translate(401.601705 742.441953)scale(0.1 -0.1)">
       <use xlink:href="#DejaVuSans-51"/>
       <use x="63.623047" xlink:href="#DejaVuSans-48"/>
       <use x="127.246094" xlink:href="#DejaVuSans-48"/>
      </g>
     </g>
    </g>
   </g>
   <g id="matplotlib.axis_4">
    <g id="ytick_7">
     <g id="line2d_24">
      <g>
       <use style="fill:#ffffff;stroke:#ffffff;stroke-width:0.8;" x="38.86" xlink:href="#m75de2ab76b" y="695.792862"/>
      </g>
     </g>
     <g id="text_22">
      <!-- −30 -->
      <g style="fill:#ffffff;" transform="translate(10.755313 699.592081)scale(0.1 -0.1)">
       <defs>
        <path d="M 10.59375 35.5 
L 73.1875 35.5 
L 73.1875 27.203125 
L 10.59375 27.203125 
z
" id="DejaVuSans-8722"/>
       </defs>
       <use xlink:href="#DejaVuSans-8722"/>
       <use x="83.789062" xlink:href="#DejaVuSans-51"/>
       <use x="147.412109" xlink:href="#DejaVuSans-48"/>
      </g>
     </g>
    </g>
    <g id="ytick_8">
     <g id="line2d_25">
      <g>
       <use style="fill:#ffffff;stroke:#ffffff;stroke-width:0.8;" x="38.86" xlink:href="#m75de2ab76b" y="637.162116"/>
      </g>
     </g>
     <g id="text_23">
      <!-- −20 -->
      <g style="fill:#ffffff;" transform="translate(10.755313 640.961335)scale(0.1 -0.1)">
       <use xlink:href="#DejaVuSans-8722"/>
       <use x="83.789062" xlink:href="#DejaVuSans-50"/>
       <use x="147.412109" xlink:href="#DejaVuSans-48"/>
      </g>
     </g>
    </g>
    <g id="ytick_9">
     <g id="line2d_26">
      <g>
       <use style="fill:#ffffff;stroke:#ffffff;stroke-width:0.8;" x="38.86" xlink:href="#m75de2ab76b" y="578.53137"/>
      </g>
     </g>
     <g id="text_24">
      <!-- −10 -->
      <g style="fill:#ffffff;" transform="translate(10.755313 582.330589)scale(0.1 -0.1)">
       <use xlink:href="#DejaVuSans-8722"/>
       <use x="83.789062" xlink:href="#DejaVuSans-49"/>
       <use x="147.412109" xlink:href="#DejaVuSans-48"/>
      </g>
     </g>
    </g>
    <g id="ytick_10">
     <g id="line2d_27">
      <g>
       <use style="fill:#ffffff;stroke:#ffffff;stroke-width:0.8;" x="38.86" xlink:href="#m75de2ab76b" y="519.900623"/>
      </g>
     </g>
     <g id="text_25">
      <!-- 0 -->
      <g style="fill:#ffffff;" transform="translate(25.4975 523.699842)scale(0.1 -0.1)">
       <use xlink:href="#DejaVuSans-48"/>
      </g>
     </g>
    </g>
    <g id="ytick_11">
     <g id="line2d_28">
      <g>
       <use style="fill:#ffffff;stroke:#ffffff;stroke-width:0.8;" x="38.86" xlink:href="#m75de2ab76b" y="461.269877"/>
      </g>
     </g>
     <g id="text_26">
      <!-- 10 -->
      <g style="fill:#ffffff;" transform="translate(19.135 465.069096)scale(0.1 -0.1)">
       <use xlink:href="#DejaVuSans-49"/>
       <use x="63.623047" xlink:href="#DejaVuSans-48"/>
      </g>
     </g>
    </g>
   </g>
   <g id="line2d_29">
    <path clip-path="url(#p843af44c6e)" d="M 56.531591 521.049786 
L 60.07773 509.916208 
L 63.623868 497.98033 
L 67.170007 485.213418 
L 70.716145 471.585169 
L 74.262284 457.063589 
L 77.808423 441.64012 
L 78.990469 438.199707 
L 80.172515 437.005895 
L 81.354561 437.321993 
L 82.536608 438.637905 
L 83.718654 440.601045 
L 86.082746 445.572546 
L 93.175024 461.799504 
L 95.539116 466.696573 
L 97.903208 471.224686 
L 100.267301 475.388565 
L 102.631393 479.206476 
L 104.995486 482.701857 
L 107.359578 485.899396 
L 109.723671 488.823238 
L 112.087763 491.496211 
L 114.451855 493.939551 
L 117.997994 497.21641 
L 121.544133 500.079756 
L 125.090271 502.581706 
L 128.63641 504.76785 
L 132.182549 506.678044 
L 135.728687 508.347118 
L 139.274826 509.805506 
L 144.003011 511.467765 
L 148.731196 512.856317 
L 153.459381 514.01623 
L 159.369612 515.201347 
L 165.279843 516.147781 
L 172.37212 517.03542 
L 180.646443 517.809323 
L 190.102813 518.441328 
L 200.741229 518.927123 
L 214.925784 519.333175 
L 233.838523 519.624324 
L 235.020569 529.968028 
L 253.933309 713.834048 
L 255.115355 713.994105 
L 258.661494 664.148956 
L 262.207632 611.519807 
L 265.753771 555.916525 
L 266.935817 536.685465 
L 268.117863 519.560881 
L 269.29991 522.830127 
L 270.481956 524.455121 
L 409.963409 524.455121 
L 409.963409 524.455121 
" style="fill:none;stroke:#8dd3c7;stroke-linecap:square;stroke-width:1.5;"/>
   </g>
   <g id="line2d_30">
    <path clip-path="url(#p843af44c6e)" d="M 56.531591 519.900623 
L 409.963409 519.900623 
L 409.963409 519.900623 
" style="fill:none;stroke:#feffb3;stroke-dasharray:9.6,2.4,1.5,2.4;stroke-dashoffset:0;stroke-width:1.5;"/>
   </g>
   <g id="patch_8">
    <path d="M 38.86 727.843515 
L 38.86 423.156485 
" style="fill:none;stroke:#ffffff;stroke-linecap:square;stroke-linejoin:miter;stroke-width:0.8;"/>
   </g>
   <g id="patch_9">
    <path d="M 427.635 727.843515 
L 427.635 423.156485 
" style="fill:none;stroke:#ffffff;stroke-linecap:square;stroke-linejoin:miter;stroke-width:0.8;"/>
   </g>
   <g id="patch_10">
    <path d="M 38.86 727.843515 
L 427.635 727.843515 
" style="fill:none;stroke:#ffffff;stroke-linecap:square;stroke-linejoin:miter;stroke-width:0.8;"/>
   </g>
   <g id="patch_11">
    <path d="M 38.86 423.156485 
L 427.635 423.156485 
" style="fill:none;stroke:#ffffff;stroke-linecap:square;stroke-linejoin:miter;stroke-width:0.8;"/>
   </g>
   <g id="text_27">
    <!-- velocity -->
    <g style="fill:#ffffff;" transform="translate(209.796875 417.156485)scale(0.12 -0.12)">
     <defs>
      <path d="M 2.984375 54.6875 
L 12.5 54.6875 
L 29.59375 8.796875 
L 46.6875 54.6875 
L 56.203125 54.6875 
L 35.6875 0 
L 23.484375 0 
z
" id="DejaVuSans-118"/>
      <path d="M 30.609375 48.390625 
Q 23.390625 48.390625 19.1875 42.75 
Q 14.984375 37.109375 14.984375 27.296875 
Q 14.984375 17.484375 19.15625 11.84375 
Q 23.34375 6.203125 30.609375 6.203125 
Q 37.796875 6.203125 41.984375 11.859375 
Q 46.1875 17.53125 46.1875 27.296875 
Q 46.1875 37.015625 41.984375 42.703125 
Q 37.796875 48.390625 30.609375 48.390625 
z
M 30.609375 56 
Q 42.328125 56 49.015625 48.375 
Q 55.71875 40.765625 55.71875 27.296875 
Q 55.71875 13.875 49.015625 6.21875 
Q 42.328125 -1.421875 30.609375 -1.421875 
Q 18.84375 -1.421875 12.171875 6.21875 
Q 5.515625 13.875 5.515625 27.296875 
Q 5.515625 40.765625 12.171875 48.375 
Q 18.84375 56 30.609375 56 
z
" id="DejaVuSans-111"/>
      <path d="M 48.78125 52.59375 
L 48.78125 44.1875 
Q 44.96875 46.296875 41.140625 47.34375 
Q 37.3125 48.390625 33.40625 48.390625 
Q 24.65625 48.390625 19.8125 42.84375 
Q 14.984375 37.3125 14.984375 27.296875 
Q 14.984375 17.28125 19.8125 11.734375 
Q 24.65625 6.203125 33.40625 6.203125 
Q 37.3125 6.203125 41.140625 7.25 
Q 44.96875 8.296875 48.78125 10.40625 
L 48.78125 2.09375 
Q 45.015625 0.34375 40.984375 -0.53125 
Q 36.96875 -1.421875 32.421875 -1.421875 
Q 20.0625 -1.421875 12.78125 6.34375 
Q 5.515625 14.109375 5.515625 27.296875 
Q 5.515625 40.671875 12.859375 48.328125 
Q 20.21875 56 33.015625 56 
Q 37.15625 56 41.109375 55.140625 
Q 45.0625 54.296875 48.78125 52.59375 
z
" id="DejaVuSans-99"/>
      <path d="M 32.171875 -5.078125 
Q 28.375 -14.84375 24.75 -17.8125 
Q 21.140625 -20.796875 15.09375 -20.796875 
L 7.90625 -20.796875 
L 7.90625 -13.28125 
L 13.1875 -13.28125 
Q 16.890625 -13.28125 18.9375 -11.515625 
Q 21 -9.765625 23.484375 -3.21875 
L 25.09375 0.875 
L 2.984375 54.6875 
L 12.5 54.6875 
L 29.59375 11.921875 
L 46.6875 54.6875 
L 56.203125 54.6875 
z
" id="DejaVuSans-121"/>
     </defs>
     <use xlink:href="#DejaVuSans-118"/>
     <use x="59.179688" xlink:href="#DejaVuSans-101"/>
     <use x="120.703125" xlink:href="#DejaVuSans-108"/>
     <use x="148.486328" xlink:href="#DejaVuSans-111"/>
     <use x="209.667969" xlink:href="#DejaVuSans-99"/>
     <use x="264.648438" xlink:href="#DejaVuSans-105"/>
     <use x="292.431641" xlink:href="#DejaVuSans-116"/>
     <use x="331.640625" xlink:href="#DejaVuSans-121"/>
    </g>
   </g>
  </g>
  <g id="axes_3">
   <g id="patch_12">
    <path d="M 464.425 933.92 
L 853.2 933.92 
L 853.2 787.68 
L 464.425 787.68 
z
"/>
   </g>
   <g id="matplotlib.axis_5">
    <g id="xtick_15">
     <g id="line2d_31">
      <g>
       <use style="fill:#ffffff;stroke:#ffffff;stroke-width:0.8;" x="482.096591" xlink:href="#m4c939577d1" y="933.92"/>
      </g>
     </g>
     <g id="text_28">
      <!-- 0 -->
      <g style="fill:#ffffff;" transform="translate(478.915341 948.518438)scale(0.1 -0.1)">
       <use xlink:href="#DejaVuSans-48"/>
      </g>
     </g>
    </g>
    <g id="xtick_16">
     <g id="line2d_32">
      <g>
       <use style="fill:#ffffff;stroke:#ffffff;stroke-width:0.8;" x="541.198902" xlink:href="#m4c939577d1" y="933.92"/>
      </g>
     </g>
     <g id="text_29">
      <!-- 50 -->
      <g style="fill:#ffffff;" transform="translate(534.836402 948.518438)scale(0.1 -0.1)">
       <use xlink:href="#DejaVuSans-53"/>
       <use x="63.623047" xlink:href="#DejaVuSans-48"/>
      </g>
     </g>
    </g>
    <g id="xtick_17">
     <g id="line2d_33">
      <g>
       <use style="fill:#ffffff;stroke:#ffffff;stroke-width:0.8;" x="600.301212" xlink:href="#m4c939577d1" y="933.92"/>
      </g>
     </g>
     <g id="text_30">
      <!-- 100 -->
      <g style="fill:#ffffff;" transform="translate(590.757462 948.518438)scale(0.1 -0.1)">
       <use xlink:href="#DejaVuSans-49"/>
       <use x="63.623047" xlink:href="#DejaVuSans-48"/>
       <use x="127.246094" xlink:href="#DejaVuSans-48"/>
      </g>
     </g>
    </g>
    <g id="xtick_18">
     <g id="line2d_34">
      <g>
       <use style="fill:#ffffff;stroke:#ffffff;stroke-width:0.8;" x="659.403523" xlink:href="#m4c939577d1" y="933.92"/>
      </g>
     </g>
     <g id="text_31">
      <!-- 150 -->
      <g style="fill:#ffffff;" transform="translate(649.859773 948.518438)scale(0.1 -0.1)">
       <use xlink:href="#DejaVuSans-49"/>
       <use x="63.623047" xlink:href="#DejaVuSans-53"/>
       <use x="127.246094" xlink:href="#DejaVuSans-48"/>
      </g>
     </g>
    </g>
    <g id="xtick_19">
     <g id="line2d_35">
      <g>
       <use style="fill:#ffffff;stroke:#ffffff;stroke-width:0.8;" x="718.505834" xlink:href="#m4c939577d1" y="933.92"/>
      </g>
     </g>
     <g id="text_32">
      <!-- 200 -->
      <g style="fill:#ffffff;" transform="translate(708.962084 948.518438)scale(0.1 -0.1)">
       <use xlink:href="#DejaVuSans-50"/>
       <use x="63.623047" xlink:href="#DejaVuSans-48"/>
       <use x="127.246094" xlink:href="#DejaVuSans-48"/>
      </g>
     </g>
    </g>
    <g id="xtick_20">
     <g id="line2d_36">
      <g>
       <use style="fill:#ffffff;stroke:#ffffff;stroke-width:0.8;" x="777.608145" xlink:href="#m4c939577d1" y="933.92"/>
      </g>
     </g>
     <g id="text_33">
      <!-- 250 -->
      <g style="fill:#ffffff;" transform="translate(768.064395 948.518438)scale(0.1 -0.1)">
       <use xlink:href="#DejaVuSans-50"/>
       <use x="63.623047" xlink:href="#DejaVuSans-53"/>
       <use x="127.246094" xlink:href="#DejaVuSans-48"/>
      </g>
     </g>
    </g>
    <g id="xtick_21">
     <g id="line2d_37">
      <g>
       <use style="fill:#ffffff;stroke:#ffffff;stroke-width:0.8;" x="836.710455" xlink:href="#m4c939577d1" y="933.92"/>
      </g>
     </g>
     <g id="text_34">
      <!-- 300 -->
      <g style="fill:#ffffff;" transform="translate(827.166705 948.518438)scale(0.1 -0.1)">
       <use xlink:href="#DejaVuSans-51"/>
       <use x="63.623047" xlink:href="#DejaVuSans-48"/>
       <use x="127.246094" xlink:href="#DejaVuSans-48"/>
      </g>
     </g>
    </g>
   </g>
   <g id="matplotlib.axis_6">
    <g id="ytick_12">
     <g id="line2d_38">
      <g>
       <use style="fill:#ffffff;stroke:#ffffff;stroke-width:0.8;" x="464.425" xlink:href="#m75de2ab76b" y="899.077621"/>
      </g>
     </g>
     <g id="text_35">
      <!-- 100 -->
      <g style="fill:#ffffff;" transform="translate(438.3375 902.876839)scale(0.1 -0.1)">
       <use xlink:href="#DejaVuSans-49"/>
       <use x="63.623047" xlink:href="#DejaVuSans-48"/>
       <use x="127.246094" xlink:href="#DejaVuSans-48"/>
      </g>
     </g>
    </g>
    <g id="ytick_13">
     <g id="line2d_39">
      <g>
       <use style="fill:#ffffff;stroke:#ffffff;stroke-width:0.8;" x="464.425" xlink:href="#m75de2ab76b" y="864.160838"/>
      </g>
     </g>
     <g id="text_36">
      <!-- 150 -->
      <g style="fill:#ffffff;" transform="translate(438.3375 867.960057)scale(0.1 -0.1)">
       <use xlink:href="#DejaVuSans-49"/>
       <use x="63.623047" xlink:href="#DejaVuSans-53"/>
       <use x="127.246094" xlink:href="#DejaVuSans-48"/>
      </g>
     </g>
    </g>
    <g id="ytick_14">
     <g id="line2d_40">
      <g>
       <use style="fill:#ffffff;stroke:#ffffff;stroke-width:0.8;" x="464.425" xlink:href="#m75de2ab76b" y="829.244055"/>
      </g>
     </g>
     <g id="text_37">
      <!-- 200 -->
      <g style="fill:#ffffff;" transform="translate(438.3375 833.043274)scale(0.1 -0.1)">
       <use xlink:href="#DejaVuSans-50"/>
       <use x="63.623047" xlink:href="#DejaVuSans-48"/>
       <use x="127.246094" xlink:href="#DejaVuSans-48"/>
      </g>
     </g>
    </g>
    <g id="ytick_15">
     <g id="line2d_41">
      <g>
       <use style="fill:#ffffff;stroke:#ffffff;stroke-width:0.8;" x="464.425" xlink:href="#m75de2ab76b" y="794.327273"/>
      </g>
     </g>
     <g id="text_38">
      <!-- 250 -->
      <g style="fill:#ffffff;" transform="translate(438.3375 798.126491)scale(0.1 -0.1)">
       <use xlink:href="#DejaVuSans-50"/>
       <use x="63.623047" xlink:href="#DejaVuSans-53"/>
       <use x="127.246094" xlink:href="#DejaVuSans-48"/>
      </g>
     </g>
    </g>
   </g>
   <g id="line2d_42">
    <path clip-path="url(#pead0371961)" d="M 482.096591 794.327273 
L 504.555469 820.703123 
L 506.919561 822.666598 
L 509.283654 824.27462 
L 514.011839 827.141183 
L 524.650255 833.551197 
L 535.288671 840.279956 
L 575.478242 866.016268 
L 588.48075 873.934306 
L 600.301212 880.871115 
L 612.121675 887.546849 
L 623.942137 893.959163 
L 635.762599 900.111051 
L 647.583061 906.008582 
L 659.403523 911.659526 
L 662.949662 911.714819 
L 679.498309 911.714819 
L 680.680355 912.25952 
L 693.682863 926.749922 
L 694.86491 927.098459 
L 696.046956 927.272727 
L 835.528409 927.272727 
L 835.528409 927.272727 
" style="fill:none;stroke:#8dd3c7;stroke-linecap:square;stroke-width:1.5;"/>
   </g>
   <g id="patch_13">
    <path d="M 464.425 933.92 
L 464.425 787.68 
" style="fill:none;stroke:#ffffff;stroke-linecap:square;stroke-linejoin:miter;stroke-width:0.8;"/>
   </g>
   <g id="patch_14">
    <path d="M 853.2 933.92 
L 853.2 787.68 
" style="fill:none;stroke:#ffffff;stroke-linecap:square;stroke-linejoin:miter;stroke-width:0.8;"/>
   </g>
   <g id="patch_15">
    <path d="M 464.425 933.92 
L 853.2 933.92 
" style="fill:none;stroke:#ffffff;stroke-linecap:square;stroke-linejoin:miter;stroke-width:0.8;"/>
   </g>
   <g id="patch_16">
    <path d="M 464.425 787.68 
L 853.2 787.68 
" style="fill:none;stroke:#ffffff;stroke-linecap:square;stroke-linejoin:miter;stroke-width:0.8;"/>
   </g>
   <g id="text_39">
    <!-- fuel -->
    <g style="fill:#ffffff;" transform="translate(647.539062 781.68)scale(0.12 -0.12)">
     <defs>
      <path d="M 37.109375 75.984375 
L 37.109375 68.5 
L 28.515625 68.5 
Q 23.6875 68.5 21.796875 66.546875 
Q 19.921875 64.59375 19.921875 59.515625 
L 19.921875 54.6875 
L 34.71875 54.6875 
L 34.71875 47.703125 
L 19.921875 47.703125 
L 19.921875 0 
L 10.890625 0 
L 10.890625 47.703125 
L 2.296875 47.703125 
L 2.296875 54.6875 
L 10.890625 54.6875 
L 10.890625 58.5 
Q 10.890625 67.625 15.140625 71.796875 
Q 19.390625 75.984375 28.609375 75.984375 
z
" id="DejaVuSans-102"/>
     </defs>
     <use xlink:href="#DejaVuSans-102"/>
     <use x="35.205078" xlink:href="#DejaVuSans-117"/>
     <use x="98.583984" xlink:href="#DejaVuSans-101"/>
     <use x="160.107422" xlink:href="#DejaVuSans-108"/>
    </g>
   </g>
  </g>
  <g id="axes_4">
   <g id="patch_17">
    <path d="M 464.425 1124.12 
L 853.2 1124.12 
L 853.2 977.88 
L 464.425 977.88 
z
"/>
   </g>
   <g id="matplotlib.axis_7">
    <g id="xtick_22">
     <g id="line2d_43">
      <g>
       <use style="fill:#ffffff;stroke:#ffffff;stroke-width:0.8;" x="482.096591" xlink:href="#m4c939577d1" y="1124.12"/>
      </g>
     </g>
     <g id="text_40">
      <!-- 0 -->
      <g style="fill:#ffffff;" transform="translate(478.915341 1138.718437)scale(0.1 -0.1)">
       <use xlink:href="#DejaVuSans-48"/>
      </g>
     </g>
    </g>
    <g id="xtick_23">
     <g id="line2d_44">
      <g>
       <use style="fill:#ffffff;stroke:#ffffff;stroke-width:0.8;" x="541.198902" xlink:href="#m4c939577d1" y="1124.12"/>
      </g>
     </g>
     <g id="text_41">
      <!-- 50 -->
      <g style="fill:#ffffff;" transform="translate(534.836402 1138.718437)scale(0.1 -0.1)">
       <use xlink:href="#DejaVuSans-53"/>
       <use x="63.623047" xlink:href="#DejaVuSans-48"/>
      </g>
     </g>
    </g>
    <g id="xtick_24">
     <g id="line2d_45">
      <g>
       <use style="fill:#ffffff;stroke:#ffffff;stroke-width:0.8;" x="600.301212" xlink:href="#m4c939577d1" y="1124.12"/>
      </g>
     </g>
     <g id="text_42">
      <!-- 100 -->
      <g style="fill:#ffffff;" transform="translate(590.757462 1138.718437)scale(0.1 -0.1)">
       <use xlink:href="#DejaVuSans-49"/>
       <use x="63.623047" xlink:href="#DejaVuSans-48"/>
       <use x="127.246094" xlink:href="#DejaVuSans-48"/>
      </g>
     </g>
    </g>
    <g id="xtick_25">
     <g id="line2d_46">
      <g>
       <use style="fill:#ffffff;stroke:#ffffff;stroke-width:0.8;" x="659.403523" xlink:href="#m4c939577d1" y="1124.12"/>
      </g>
     </g>
     <g id="text_43">
      <!-- 150 -->
      <g style="fill:#ffffff;" transform="translate(649.859773 1138.718437)scale(0.1 -0.1)">
       <use xlink:href="#DejaVuSans-49"/>
       <use x="63.623047" xlink:href="#DejaVuSans-53"/>
       <use x="127.246094" xlink:href="#DejaVuSans-48"/>
      </g>
     </g>
    </g>
    <g id="xtick_26">
     <g id="line2d_47">
      <g>
       <use style="fill:#ffffff;stroke:#ffffff;stroke-width:0.8;" x="718.505834" xlink:href="#m4c939577d1" y="1124.12"/>
      </g>
     </g>
     <g id="text_44">
      <!-- 200 -->
      <g style="fill:#ffffff;" transform="translate(708.962084 1138.718437)scale(0.1 -0.1)">
       <use xlink:href="#DejaVuSans-50"/>
       <use x="63.623047" xlink:href="#DejaVuSans-48"/>
       <use x="127.246094" xlink:href="#DejaVuSans-48"/>
      </g>
     </g>
    </g>
    <g id="xtick_27">
     <g id="line2d_48">
      <g>
       <use style="fill:#ffffff;stroke:#ffffff;stroke-width:0.8;" x="777.608145" xlink:href="#m4c939577d1" y="1124.12"/>
      </g>
     </g>
     <g id="text_45">
      <!-- 250 -->
      <g style="fill:#ffffff;" transform="translate(768.064395 1138.718437)scale(0.1 -0.1)">
       <use xlink:href="#DejaVuSans-50"/>
       <use x="63.623047" xlink:href="#DejaVuSans-53"/>
       <use x="127.246094" xlink:href="#DejaVuSans-48"/>
      </g>
     </g>
    </g>
    <g id="xtick_28">
     <g id="line2d_49">
      <g>
       <use style="fill:#ffffff;stroke:#ffffff;stroke-width:0.8;" x="836.710455" xlink:href="#m4c939577d1" y="1124.12"/>
      </g>
     </g>
     <g id="text_46">
      <!-- 300 -->
      <g style="fill:#ffffff;" transform="translate(827.166705 1138.718437)scale(0.1 -0.1)">
       <use xlink:href="#DejaVuSans-51"/>
       <use x="63.623047" xlink:href="#DejaVuSans-48"/>
       <use x="127.246094" xlink:href="#DejaVuSans-48"/>
      </g>
     </g>
    </g>
   </g>
   <g id="matplotlib.axis_8">
    <g id="ytick_16">
     <g id="line2d_50">
      <g>
       <use style="fill:#ffffff;stroke:#ffffff;stroke-width:0.8;" x="464.425" xlink:href="#m75de2ab76b" y="1117.473017"/>
      </g>
     </g>
     <g id="text_47">
      <!-- 0 -->
      <g style="fill:#ffffff;" transform="translate(451.0625 1121.272236)scale(0.1 -0.1)">
       <use xlink:href="#DejaVuSans-48"/>
      </g>
     </g>
    </g>
    <g id="ytick_17">
     <g id="line2d_51">
      <g>
       <use style="fill:#ffffff;stroke:#ffffff;stroke-width:0.8;" x="464.425" xlink:href="#m75de2ab76b" y="1081.725436"/>
      </g>
     </g>
     <g id="text_48">
      <!-- 10 -->
      <g style="fill:#ffffff;" transform="translate(444.7 1085.524655)scale(0.1 -0.1)">
       <use xlink:href="#DejaVuSans-49"/>
       <use x="63.623047" xlink:href="#DejaVuSans-48"/>
      </g>
     </g>
    </g>
    <g id="ytick_18">
     <g id="line2d_52">
      <g>
       <use style="fill:#ffffff;stroke:#ffffff;stroke-width:0.8;" x="464.425" xlink:href="#m75de2ab76b" y="1045.977855"/>
      </g>
     </g>
     <g id="text_49">
      <!-- 20 -->
      <g style="fill:#ffffff;" transform="translate(444.7 1049.777074)scale(0.1 -0.1)">
       <use xlink:href="#DejaVuSans-50"/>
       <use x="63.623047" xlink:href="#DejaVuSans-48"/>
      </g>
     </g>
    </g>
    <g id="ytick_19">
     <g id="line2d_53">
      <g>
       <use style="fill:#ffffff;stroke:#ffffff;stroke-width:0.8;" x="464.425" xlink:href="#m75de2ab76b" y="1010.230275"/>
      </g>
     </g>
     <g id="text_50">
      <!-- 30 -->
      <g style="fill:#ffffff;" transform="translate(444.7 1014.029493)scale(0.1 -0.1)">
       <use xlink:href="#DejaVuSans-51"/>
       <use x="63.623047" xlink:href="#DejaVuSans-48"/>
      </g>
     </g>
    </g>
   </g>
   <g id="line2d_54">
    <path clip-path="url(#pb3de227a8f)" d="M 482.096591 1117.44469 
L 483.278637 1117.345903 
L 484.460683 1116.709326 
L 485.64273 1115.556706 
L 486.824776 1113.905568 
L 488.006822 1111.76995 
L 489.188868 1109.161112 
L 490.370914 1106.088058 
L 491.552961 1102.557944 
L 492.735007 1098.576387 
L 493.917053 1094.147718 
L 496.281145 1083.96105 
L 498.645238 1072.013389 
L 501.00933 1058.308919 
L 503.373423 1042.886902 
L 504.555469 1037.908406 
L 505.737515 1036.860481 
L 506.919561 1038.455665 
L 508.101608 1041.716707 
L 509.283654 1045.945267 
L 515.193885 1069.522202 
L 517.557977 1077.561801 
L 519.92207 1084.429373 
L 522.286162 1090.20229 
L 524.650255 1095.012049 
L 527.014347 1098.998604 
L 529.378439 1102.292278 
L 531.742532 1105.007771 
L 534.106624 1107.243275 
L 536.470717 1109.081615 
L 538.834809 1110.592065 
L 541.198902 1111.83226 
L 543.562994 1112.849989 
L 545.927087 1113.684774 
L 549.473225 1114.663706 
L 553.019364 1115.390047 
L 557.747549 1116.075317 
L 562.475734 1116.535094 
L 568.385965 1116.903201 
L 576.660288 1117.189149 
L 589.662796 1117.377784 
L 614.485767 1117.461052 
L 659.403523 1117.472727 
L 660.585569 1117.089983 
L 661.767616 1115.724616 
L 662.949662 1113.382724 
L 664.131708 1110.077274 
L 665.313754 1105.820733 
L 666.4958 1100.625095 
L 667.677847 1094.501912 
L 668.859893 1087.462319 
L 670.041939 1079.51706 
L 671.223985 1070.676509 
L 673.588078 1050.349307 
L 675.95217 1026.557071 
L 678.316263 999.371423 
L 679.498309 984.527273 
L 680.680355 985.242025 
L 683.044447 1028.429868 
L 684.226494 1046.977747 
L 685.40854 1063.449947 
L 686.590586 1077.811007 
L 687.772632 1090.023947 
L 688.954678 1100.050143 
L 690.136725 1107.84918 
L 691.318771 1113.378688 
L 692.500817 1116.594154 
L 693.682863 1117.472661 
L 700.775141 1117.409605 
L 835.528409 1117.409605 
L 835.528409 1117.409605 
" style="fill:none;stroke:#8dd3c7;stroke-linecap:square;stroke-width:1.5;"/>
   </g>
   <g id="patch_18">
    <path d="M 464.425 1124.12 
L 464.425 977.88 
" style="fill:none;stroke:#ffffff;stroke-linecap:square;stroke-linejoin:miter;stroke-width:0.8;"/>
   </g>
   <g id="patch_19">
    <path d="M 853.2 1124.12 
L 853.2 977.88 
" style="fill:none;stroke:#ffffff;stroke-linecap:square;stroke-linejoin:miter;stroke-width:0.8;"/>
   </g>
   <g id="patch_20">
    <path d="M 464.425 1124.12 
L 853.2 1124.12 
" style="fill:none;stroke:#ffffff;stroke-linecap:square;stroke-linejoin:miter;stroke-width:0.8;"/>
   </g>
   <g id="patch_21">
    <path d="M 464.425 977.88 
L 853.2 977.88 
" style="fill:none;stroke:#ffffff;stroke-linecap:square;stroke-linejoin:miter;stroke-width:0.8;"/>
   </g>
   <g id="text_51">
    <!-- estimated distance -->
    <g style="fill:#ffffff;" transform="translate(601.270625 971.88)scale(0.12 -0.12)">
     <defs>
      <path d="M 44.28125 53.078125 
L 44.28125 44.578125 
Q 40.484375 46.53125 36.375 47.5 
Q 32.28125 48.484375 27.875 48.484375 
Q 21.1875 48.484375 17.84375 46.4375 
Q 14.5 44.390625 14.5 40.28125 
Q 14.5 37.15625 16.890625 35.375 
Q 19.28125 33.59375 26.515625 31.984375 
L 29.59375 31.296875 
Q 39.15625 29.25 43.1875 25.515625 
Q 47.21875 21.78125 47.21875 15.09375 
Q 47.21875 7.46875 41.1875 3.015625 
Q 35.15625 -1.421875 24.609375 -1.421875 
Q 20.21875 -1.421875 15.453125 -0.5625 
Q 10.6875 0.296875 5.421875 2 
L 5.421875 11.28125 
Q 10.40625 8.6875 15.234375 7.390625 
Q 20.0625 6.109375 24.8125 6.109375 
Q 31.15625 6.109375 34.5625 8.28125 
Q 37.984375 10.453125 37.984375 14.40625 
Q 37.984375 18.0625 35.515625 20.015625 
Q 33.0625 21.96875 24.703125 23.78125 
L 21.578125 24.515625 
Q 13.234375 26.265625 9.515625 29.90625 
Q 5.8125 33.546875 5.8125 39.890625 
Q 5.8125 47.609375 11.28125 51.796875 
Q 16.75 56 26.8125 56 
Q 31.78125 56 36.171875 55.265625 
Q 40.578125 54.546875 44.28125 53.078125 
z
" id="DejaVuSans-115"/>
      <path d="M 52 44.1875 
Q 55.375 50.25 60.0625 53.125 
Q 64.75 56 71.09375 56 
Q 79.640625 56 84.28125 50.015625 
Q 88.921875 44.046875 88.921875 33.015625 
L 88.921875 0 
L 79.890625 0 
L 79.890625 32.71875 
Q 79.890625 40.578125 77.09375 44.375 
Q 74.3125 48.1875 68.609375 48.1875 
Q 61.625 48.1875 57.5625 43.546875 
Q 53.515625 38.921875 53.515625 30.90625 
L 53.515625 0 
L 44.484375 0 
L 44.484375 32.71875 
Q 44.484375 40.625 41.703125 44.40625 
Q 38.921875 48.1875 33.109375 48.1875 
Q 26.21875 48.1875 22.15625 43.53125 
Q 18.109375 38.875 18.109375 30.90625 
L 18.109375 0 
L 9.078125 0 
L 9.078125 54.6875 
L 18.109375 54.6875 
L 18.109375 46.1875 
Q 21.1875 51.21875 25.484375 53.609375 
Q 29.78125 56 35.6875 56 
Q 41.65625 56 45.828125 52.96875 
Q 50 49.953125 52 44.1875 
z
" id="DejaVuSans-109"/>
      <path id="DejaVuSans-32"/>
      <path d="M 54.890625 33.015625 
L 54.890625 0 
L 45.90625 0 
L 45.90625 32.71875 
Q 45.90625 40.484375 42.875 44.328125 
Q 39.84375 48.1875 33.796875 48.1875 
Q 26.515625 48.1875 22.3125 43.546875 
Q 18.109375 38.921875 18.109375 30.90625 
L 18.109375 0 
L 9.078125 0 
L 9.078125 54.6875 
L 18.109375 54.6875 
L 18.109375 46.1875 
Q 21.34375 51.125 25.703125 53.5625 
Q 30.078125 56 35.796875 56 
Q 45.21875 56 50.046875 50.171875 
Q 54.890625 44.34375 54.890625 33.015625 
z
" id="DejaVuSans-110"/>
     </defs>
     <use xlink:href="#DejaVuSans-101"/>
     <use x="61.523438" xlink:href="#DejaVuSans-115"/>
     <use x="113.623047" xlink:href="#DejaVuSans-116"/>
     <use x="152.832031" xlink:href="#DejaVuSans-105"/>
     <use x="180.615234" xlink:href="#DejaVuSans-109"/>
     <use x="278.027344" xlink:href="#DejaVuSans-97"/>
     <use x="339.306641" xlink:href="#DejaVuSans-116"/>
     <use x="378.515625" xlink:href="#DejaVuSans-101"/>
     <use x="440.039062" xlink:href="#DejaVuSans-100"/>
     <use x="503.515625" xlink:href="#DejaVuSans-32"/>
     <use x="535.302734" xlink:href="#DejaVuSans-100"/>
     <use x="598.779297" xlink:href="#DejaVuSans-105"/>
     <use x="626.5625" xlink:href="#DejaVuSans-115"/>
     <use x="678.662109" xlink:href="#DejaVuSans-116"/>
     <use x="717.871094" xlink:href="#DejaVuSans-97"/>
     <use x="779.150391" xlink:href="#DejaVuSans-110"/>
     <use x="842.529297" xlink:href="#DejaVuSans-99"/>
     <use x="897.509766" xlink:href="#DejaVuSans-101"/>
    </g>
   </g>
  </g>
  <g id="axes_5">
   <g id="patch_22">
    <path d="M 38.86 1124.12 
L 427.635 1124.12 
L 427.635 819.43297 
L 38.86 819.43297 
z
"/>
   </g>
   <g id="matplotlib.axis_9">
    <g id="xtick_29">
     <g id="line2d_55">
      <g>
       <use style="fill:#ffffff;stroke:#ffffff;stroke-width:0.8;" x="56.531591" xlink:href="#m4c939577d1" y="1124.12"/>
      </g>
     </g>
     <g id="text_52">
      <!-- 0 -->
      <g style="fill:#ffffff;" transform="translate(53.350341 1138.718437)scale(0.1 -0.1)">
       <use xlink:href="#DejaVuSans-48"/>
      </g>
     </g>
    </g>
    <g id="xtick_30">
     <g id="line2d_56">
      <g>
       <use style="fill:#ffffff;stroke:#ffffff;stroke-width:0.8;" x="115.633902" xlink:href="#m4c939577d1" y="1124.12"/>
      </g>
     </g>
     <g id="text_53">
      <!-- 50 -->
      <g style="fill:#ffffff;" transform="translate(109.271402 1138.718437)scale(0.1 -0.1)">
       <use xlink:href="#DejaVuSans-53"/>
       <use x="63.623047" xlink:href="#DejaVuSans-48"/>
      </g>
     </g>
    </g>
    <g id="xtick_31">
     <g id="line2d_57">
      <g>
       <use style="fill:#ffffff;stroke:#ffffff;stroke-width:0.8;" x="174.736212" xlink:href="#m4c939577d1" y="1124.12"/>
      </g>
     </g>
     <g id="text_54">
      <!-- 100 -->
      <g style="fill:#ffffff;" transform="translate(165.192462 1138.718437)scale(0.1 -0.1)">
       <use xlink:href="#DejaVuSans-49"/>
       <use x="63.623047" xlink:href="#DejaVuSans-48"/>
       <use x="127.246094" xlink:href="#DejaVuSans-48"/>
      </g>
     </g>
    </g>
    <g id="xtick_32">
     <g id="line2d_58">
      <g>
       <use style="fill:#ffffff;stroke:#ffffff;stroke-width:0.8;" x="233.838523" xlink:href="#m4c939577d1" y="1124.12"/>
      </g>
     </g>
     <g id="text_55">
      <!-- 150 -->
      <g style="fill:#ffffff;" transform="translate(224.294773 1138.718437)scale(0.1 -0.1)">
       <use xlink:href="#DejaVuSans-49"/>
       <use x="63.623047" xlink:href="#DejaVuSans-53"/>
       <use x="127.246094" xlink:href="#DejaVuSans-48"/>
      </g>
     </g>
    </g>
    <g id="xtick_33">
     <g id="line2d_59">
      <g>
       <use style="fill:#ffffff;stroke:#ffffff;stroke-width:0.8;" x="292.940834" xlink:href="#m4c939577d1" y="1124.12"/>
      </g>
     </g>
     <g id="text_56">
      <!-- 200 -->
      <g style="fill:#ffffff;" transform="translate(283.397084 1138.718437)scale(0.1 -0.1)">
       <use xlink:href="#DejaVuSans-50"/>
       <use x="63.623047" xlink:href="#DejaVuSans-48"/>
       <use x="127.246094" xlink:href="#DejaVuSans-48"/>
      </g>
     </g>
    </g>
    <g id="xtick_34">
     <g id="line2d_60">
      <g>
       <use style="fill:#ffffff;stroke:#ffffff;stroke-width:0.8;" x="352.043145" xlink:href="#m4c939577d1" y="1124.12"/>
      </g>
     </g>
     <g id="text_57">
      <!-- 250 -->
      <g style="fill:#ffffff;" transform="translate(342.499395 1138.718437)scale(0.1 -0.1)">
       <use xlink:href="#DejaVuSans-50"/>
       <use x="63.623047" xlink:href="#DejaVuSans-53"/>
       <use x="127.246094" xlink:href="#DejaVuSans-48"/>
      </g>
     </g>
    </g>
    <g id="xtick_35">
     <g id="line2d_61">
      <g>
       <use style="fill:#ffffff;stroke:#ffffff;stroke-width:0.8;" x="411.145455" xlink:href="#m4c939577d1" y="1124.12"/>
      </g>
     </g>
     <g id="text_58">
      <!-- 300 -->
      <g style="fill:#ffffff;" transform="translate(401.601705 1138.718437)scale(0.1 -0.1)">
       <use xlink:href="#DejaVuSans-51"/>
       <use x="63.623047" xlink:href="#DejaVuSans-48"/>
       <use x="127.246094" xlink:href="#DejaVuSans-48"/>
      </g>
     </g>
    </g>
   </g>
   <g id="matplotlib.axis_10">
    <g id="ytick_20">
     <g id="line2d_62">
      <g>
       <use style="fill:#ffffff;stroke:#ffffff;stroke-width:0.8;" x="38.86" xlink:href="#m75de2ab76b" y="1112.373935"/>
      </g>
     </g>
     <g id="text_59">
      <!-- −10 -->
      <g style="fill:#ffffff;" transform="translate(10.755313 1116.173154)scale(0.1 -0.1)">
       <use xlink:href="#DejaVuSans-8722"/>
       <use x="83.789062" xlink:href="#DejaVuSans-49"/>
       <use x="147.412109" xlink:href="#DejaVuSans-48"/>
      </g>
     </g>
    </g>
    <g id="ytick_21">
     <g id="line2d_63">
      <g>
       <use style="fill:#ffffff;stroke:#ffffff;stroke-width:0.8;" x="38.86" xlink:href="#m75de2ab76b" y="1059.790288"/>
      </g>
     </g>
     <g id="text_60">
      <!-- −5 -->
      <g style="fill:#ffffff;" transform="translate(17.117813 1063.589507)scale(0.1 -0.1)">
       <use xlink:href="#DejaVuSans-8722"/>
       <use x="83.789062" xlink:href="#DejaVuSans-53"/>
      </g>
     </g>
    </g>
    <g id="ytick_22">
     <g id="line2d_64">
      <g>
       <use style="fill:#ffffff;stroke:#ffffff;stroke-width:0.8;" x="38.86" xlink:href="#m75de2ab76b" y="1007.206641"/>
      </g>
     </g>
     <g id="text_61">
      <!-- 0 -->
      <g style="fill:#ffffff;" transform="translate(25.4975 1011.00586)scale(0.1 -0.1)">
       <use xlink:href="#DejaVuSans-48"/>
      </g>
     </g>
    </g>
    <g id="ytick_23">
     <g id="line2d_65">
      <g>
       <use style="fill:#ffffff;stroke:#ffffff;stroke-width:0.8;" x="38.86" xlink:href="#m75de2ab76b" y="954.622994"/>
      </g>
     </g>
     <g id="text_62">
      <!-- 5 -->
      <g style="fill:#ffffff;" transform="translate(25.4975 958.422213)scale(0.1 -0.1)">
       <use xlink:href="#DejaVuSans-53"/>
      </g>
     </g>
    </g>
    <g id="ytick_24">
     <g id="line2d_66">
      <g>
       <use style="fill:#ffffff;stroke:#ffffff;stroke-width:0.8;" x="38.86" xlink:href="#m75de2ab76b" y="902.039347"/>
      </g>
     </g>
     <g id="text_63">
      <!-- 10 -->
      <g style="fill:#ffffff;" transform="translate(19.135 905.838566)scale(0.1 -0.1)">
       <use xlink:href="#DejaVuSans-49"/>
       <use x="63.623047" xlink:href="#DejaVuSans-48"/>
      </g>
     </g>
    </g>
    <g id="ytick_25">
     <g id="line2d_67">
      <g>
       <use style="fill:#ffffff;stroke:#ffffff;stroke-width:0.8;" x="38.86" xlink:href="#m75de2ab76b" y="849.4557"/>
      </g>
     </g>
     <g id="text_64">
      <!-- 15 -->
      <g style="fill:#ffffff;" transform="translate(19.135 853.254919)scale(0.1 -0.1)">
       <use xlink:href="#DejaVuSans-49"/>
       <use x="63.623047" xlink:href="#DejaVuSans-53"/>
      </g>
     </g>
    </g>
   </g>
   <g id="line2d_68">
    <path clip-path="url(#p643fd88c00)" d="M 56.531591 1110.27059 
L 57.713637 974.356511 
L 63.623868 970.337762 
L 69.534099 966.074117 
L 75.44433 961.542487 
L 76.626377 960.601765 
L 77.808423 961.91379 
L 78.990469 986.726336 
L 80.172515 1003.500191 
L 81.354561 1014.703949 
L 82.536608 1022.053738 
L 83.718654 1026.742335 
L 84.9007 1029.598536 
L 86.082746 1031.198004 
L 87.264792 1031.940362 
L 88.446839 1032.102829 
L 89.628885 1031.877508 
L 90.810931 1031.397336 
L 93.175024 1030.011113 
L 103.813439 1022.911176 
L 107.359578 1020.944809 
L 110.905717 1019.216038 
L 114.451855 1017.701915 
L 119.18004 1015.974449 
L 123.908225 1014.530904 
L 128.63641 1013.32493 
L 134.546641 1012.092716 
L 140.456872 1011.108662 
L 147.549149 1010.185739 
L 154.641427 1009.48111 
L 162.91575 1008.866767 
L 173.554166 1008.314116 
L 186.556675 1007.881881 
L 203.105322 1007.566374 
L 226.746246 1007.352959 
L 233.838523 1007.318351 
L 235.020569 1110.27059 
L 253.933309 1110.27059 
L 255.115355 862.308163 
L 258.661494 854.259903 
L 262.207632 845.671662 
L 265.753771 836.487211 
L 266.935817 833.28238 
L 268.117863 1036.653484 
L 269.29991 1036.423738 
L 270.481956 1036.308326 
L 409.963409 1036.308326 
L 409.963409 1036.308326 
" style="fill:none;stroke:#8dd3c7;stroke-linecap:square;stroke-width:1.5;"/>
   </g>
   <g id="line2d_69">
    <path clip-path="url(#p643fd88c00)" d="M 56.531591 1007.206641 
L 409.963409 1007.206641 
L 409.963409 1007.206641 
" style="fill:none;stroke:#feffb3;stroke-linecap:square;stroke-opacity:0.5;stroke-width:1.5;"/>
   </g>
   <g id="patch_23">
    <path d="M 38.86 1124.12 
L 38.86 819.43297 
" style="fill:none;stroke:#ffffff;stroke-linecap:square;stroke-linejoin:miter;stroke-width:0.8;"/>
   </g>
   <g id="patch_24">
    <path d="M 427.635 1124.12 
L 427.635 819.43297 
" style="fill:none;stroke:#ffffff;stroke-linecap:square;stroke-linejoin:miter;stroke-width:0.8;"/>
   </g>
   <g id="patch_25">
    <path d="M 38.86 1124.12 
L 427.635 1124.12 
" style="fill:none;stroke:#ffffff;stroke-linecap:square;stroke-linejoin:miter;stroke-width:0.8;"/>
   </g>
   <g id="patch_26">
    <path d="M 38.86 819.43297 
L 427.635 819.43297 
" style="fill:none;stroke:#ffffff;stroke-linecap:square;stroke-linejoin:miter;stroke-width:0.8;"/>
   </g>
   <g id="text_65">
    <!-- acceleration -->
    <g style="fill:#ffffff;" transform="translate(196.285625 813.43297)scale(0.12 -0.12)">
     <defs>
      <path d="M 41.109375 46.296875 
Q 39.59375 47.171875 37.8125 47.578125 
Q 36.03125 48 33.890625 48 
Q 26.265625 48 22.1875 43.046875 
Q 18.109375 38.09375 18.109375 28.8125 
L 18.109375 0 
L 9.078125 0 
L 9.078125 54.6875 
L 18.109375 54.6875 
L 18.109375 46.1875 
Q 20.953125 51.171875 25.484375 53.578125 
Q 30.03125 56 36.53125 56 
Q 37.453125 56 38.578125 55.875 
Q 39.703125 55.765625 41.0625 55.515625 
z
" id="DejaVuSans-114"/>
     </defs>
     <use xlink:href="#DejaVuSans-97"/>
     <use x="61.279297" xlink:href="#DejaVuSans-99"/>
     <use x="116.259766" xlink:href="#DejaVuSans-99"/>
     <use x="171.240234" xlink:href="#DejaVuSans-101"/>
     <use x="232.763672" xlink:href="#DejaVuSans-108"/>
     <use x="260.546875" xlink:href="#DejaVuSans-101"/>
     <use x="322.070312" xlink:href="#DejaVuSans-114"/>
     <use x="363.183594" xlink:href="#DejaVuSans-97"/>
     <use x="424.462891" xlink:href="#DejaVuSans-116"/>
     <use x="463.671875" xlink:href="#DejaVuSans-105"/>
     <use x="491.455078" xlink:href="#DejaVuSans-111"/>
     <use x="552.636719" xlink:href="#DejaVuSans-110"/>
    </g>
   </g>
  </g>
  <g id="axes_6">
   <g id="patch_27">
    <path d="M 464.425 727.843515 
L 853.2 727.843515 
L 853.2 423.156485 
L 464.425 423.156485 
z
"/>
   </g>
   <g id="matplotlib.axis_11">
    <g id="xtick_36">
     <g id="line2d_70">
      <g>
       <use style="fill:#ffffff;stroke:#ffffff;stroke-width:0.8;" x="482.096591" xlink:href="#m4c939577d1" y="727.843515"/>
      </g>
     </g>
     <g id="text_66">
      <!-- 0 -->
      <g style="fill:#ffffff;" transform="translate(478.915341 742.441953)scale(0.1 -0.1)">
       <use xlink:href="#DejaVuSans-48"/>
      </g>
     </g>
    </g>
    <g id="xtick_37">
     <g id="line2d_71">
      <g>
       <use style="fill:#ffffff;stroke:#ffffff;stroke-width:0.8;" x="541.198902" xlink:href="#m4c939577d1" y="727.843515"/>
      </g>
     </g>
     <g id="text_67">
      <!-- 50 -->
      <g style="fill:#ffffff;" transform="translate(534.836402 742.441953)scale(0.1 -0.1)">
       <use xlink:href="#DejaVuSans-53"/>
       <use x="63.623047" xlink:href="#DejaVuSans-48"/>
      </g>
     </g>
    </g>
    <g id="xtick_38">
     <g id="line2d_72">
      <g>
       <use style="fill:#ffffff;stroke:#ffffff;stroke-width:0.8;" x="600.301212" xlink:href="#m4c939577d1" y="727.843515"/>
      </g>
     </g>
     <g id="text_68">
      <!-- 100 -->
      <g style="fill:#ffffff;" transform="translate(590.757462 742.441953)scale(0.1 -0.1)">
       <use xlink:href="#DejaVuSans-49"/>
       <use x="63.623047" xlink:href="#DejaVuSans-48"/>
       <use x="127.246094" xlink:href="#DejaVuSans-48"/>
      </g>
     </g>
    </g>
    <g id="xtick_39">
     <g id="line2d_73">
      <g>
       <use style="fill:#ffffff;stroke:#ffffff;stroke-width:0.8;" x="659.403523" xlink:href="#m4c939577d1" y="727.843515"/>
      </g>
     </g>
     <g id="text_69">
      <!-- 150 -->
      <g style="fill:#ffffff;" transform="translate(649.859773 742.441953)scale(0.1 -0.1)">
       <use xlink:href="#DejaVuSans-49"/>
       <use x="63.623047" xlink:href="#DejaVuSans-53"/>
       <use x="127.246094" xlink:href="#DejaVuSans-48"/>
      </g>
     </g>
    </g>
    <g id="xtick_40">
     <g id="line2d_74">
      <g>
       <use style="fill:#ffffff;stroke:#ffffff;stroke-width:0.8;" x="718.505834" xlink:href="#m4c939577d1" y="727.843515"/>
      </g>
     </g>
     <g id="text_70">
      <!-- 200 -->
      <g style="fill:#ffffff;" transform="translate(708.962084 742.441953)scale(0.1 -0.1)">
       <use xlink:href="#DejaVuSans-50"/>
       <use x="63.623047" xlink:href="#DejaVuSans-48"/>
       <use x="127.246094" xlink:href="#DejaVuSans-48"/>
      </g>
     </g>
    </g>
    <g id="xtick_41">
     <g id="line2d_75">
      <g>
       <use style="fill:#ffffff;stroke:#ffffff;stroke-width:0.8;" x="777.608145" xlink:href="#m4c939577d1" y="727.843515"/>
      </g>
     </g>
     <g id="text_71">
      <!-- 250 -->
      <g style="fill:#ffffff;" transform="translate(768.064395 742.441953)scale(0.1 -0.1)">
       <use xlink:href="#DejaVuSans-50"/>
       <use x="63.623047" xlink:href="#DejaVuSans-53"/>
       <use x="127.246094" xlink:href="#DejaVuSans-48"/>
      </g>
     </g>
    </g>
    <g id="xtick_42">
     <g id="line2d_76">
      <g>
       <use style="fill:#ffffff;stroke:#ffffff;stroke-width:0.8;" x="836.710455" xlink:href="#m4c939577d1" y="727.843515"/>
      </g>
     </g>
     <g id="text_72">
      <!-- 300 -->
      <g style="fill:#ffffff;" transform="translate(827.166705 742.441953)scale(0.1 -0.1)">
       <use xlink:href="#DejaVuSans-51"/>
       <use x="63.623047" xlink:href="#DejaVuSans-48"/>
       <use x="127.246094" xlink:href="#DejaVuSans-48"/>
      </g>
     </g>
    </g>
   </g>
   <g id="matplotlib.axis_12">
    <g id="ytick_26">
     <g id="line2d_77">
      <g>
       <use style="fill:#ffffff;stroke:#ffffff;stroke-width:0.8;" x="464.425" xlink:href="#m75de2ab76b" y="713.994105"/>
      </g>
     </g>
     <g id="text_73">
      <!-- 0.0 -->
      <g style="fill:#ffffff;" transform="translate(441.521875 717.793323)scale(0.1 -0.1)">
       <defs>
        <path d="M 10.6875 12.40625 
L 21 12.40625 
L 21 0 
L 10.6875 0 
z
" id="DejaVuSans-46"/>
       </defs>
       <use xlink:href="#DejaVuSans-48"/>
       <use x="63.623047" xlink:href="#DejaVuSans-46"/>
       <use x="95.410156" xlink:href="#DejaVuSans-48"/>
      </g>
     </g>
    </g>
    <g id="ytick_27">
     <g id="line2d_78">
      <g>
       <use style="fill:#ffffff;stroke:#ffffff;stroke-width:0.8;" x="464.425" xlink:href="#m75de2ab76b" y="658.596463"/>
      </g>
     </g>
     <g id="text_74">
      <!-- 0.2 -->
      <g style="fill:#ffffff;" transform="translate(441.521875 662.395682)scale(0.1 -0.1)">
       <use xlink:href="#DejaVuSans-48"/>
       <use x="63.623047" xlink:href="#DejaVuSans-46"/>
       <use x="95.410156" xlink:href="#DejaVuSans-50"/>
      </g>
     </g>
    </g>
    <g id="ytick_28">
     <g id="line2d_79">
      <g>
       <use style="fill:#ffffff;stroke:#ffffff;stroke-width:0.8;" x="464.425" xlink:href="#m75de2ab76b" y="603.198821"/>
      </g>
     </g>
     <g id="text_75">
      <!-- 0.4 -->
      <g style="fill:#ffffff;" transform="translate(441.521875 606.99804)scale(0.1 -0.1)">
       <use xlink:href="#DejaVuSans-48"/>
       <use x="63.623047" xlink:href="#DejaVuSans-46"/>
       <use x="95.410156" xlink:href="#DejaVuSans-52"/>
      </g>
     </g>
    </g>
    <g id="ytick_29">
     <g id="line2d_80">
      <g>
       <use style="fill:#ffffff;stroke:#ffffff;stroke-width:0.8;" x="464.425" xlink:href="#m75de2ab76b" y="547.801179"/>
      </g>
     </g>
     <g id="text_76">
      <!-- 0.6 -->
      <g style="fill:#ffffff;" transform="translate(441.521875 551.600398)scale(0.1 -0.1)">
       <use xlink:href="#DejaVuSans-48"/>
       <use x="63.623047" xlink:href="#DejaVuSans-46"/>
       <use x="95.410156" xlink:href="#DejaVuSans-54"/>
      </g>
     </g>
    </g>
    <g id="ytick_30">
     <g id="line2d_81">
      <g>
       <use style="fill:#ffffff;stroke:#ffffff;stroke-width:0.8;" x="464.425" xlink:href="#m75de2ab76b" y="492.403537"/>
      </g>
     </g>
     <g id="text_77">
      <!-- 0.8 -->
      <g style="fill:#ffffff;" transform="translate(441.521875 496.202756)scale(0.1 -0.1)">
       <use xlink:href="#DejaVuSans-48"/>
       <use x="63.623047" xlink:href="#DejaVuSans-46"/>
       <use x="95.410156" xlink:href="#DejaVuSans-56"/>
      </g>
     </g>
    </g>
    <g id="ytick_31">
     <g id="line2d_82">
      <g>
       <use style="fill:#ffffff;stroke:#ffffff;stroke-width:0.8;" x="464.425" xlink:href="#m75de2ab76b" y="437.005895"/>
      </g>
     </g>
     <g id="text_78">
      <!-- 1.0 -->
      <g style="fill:#ffffff;" transform="translate(441.521875 440.805114)scale(0.1 -0.1)">
       <use xlink:href="#DejaVuSans-49"/>
       <use x="63.623047" xlink:href="#DejaVuSans-46"/>
       <use x="95.410156" xlink:href="#DejaVuSans-48"/>
      </g>
     </g>
    </g>
   </g>
   <g id="line2d_83">
    <path clip-path="url(#p348b09f864)" d="M 482.096591 437.005895 
L 502.191377 437.005895 
L 503.373423 446.733537 
L 504.555469 491.863104 
L 505.737515 522.246491 
L 506.919561 542.527569 
L 508.101608 555.882676 
L 509.283654 564.492974 
L 510.4657 569.86011 
L 511.647746 573.019499 
L 512.829792 574.685592 
L 514.011839 575.351369 
L 515.193885 575.356765 
L 516.375931 574.935853 
L 517.557977 574.249448 
L 519.92207 572.485479 
L 524.650255 568.785621 
L 527.014347 567.18126 
L 529.378439 565.80603 
L 531.742532 564.663077 
L 534.106624 563.742319 
L 536.470717 563.028331 
L 538.834809 562.504047 
L 541.198902 562.152474 
L 544.74504 561.913865 
L 548.291179 561.977909 
L 551.837318 562.300756 
L 555.383456 562.844177 
L 558.929595 563.574989 
L 563.65778 564.791791 
L 568.385965 566.233444 
L 574.296196 568.280292 
L 581.388473 570.999653 
L 589.662796 574.413932 
L 602.665305 580.058852 
L 636.944645 595.064628 
L 651.1292 600.990996 
L 659.403523 604.336987 
L 660.585569 713.994105 
L 679.498309 713.994105 
L 680.680355 450.855306 
L 692.500817 450.855306 
L 693.682863 644.872199 
L 835.528409 644.872199 
L 835.528409 644.872199 
" style="fill:none;stroke:#8dd3c7;stroke-linecap:square;stroke-width:1.5;"/>
   </g>
   <g id="patch_28">
    <path d="M 464.425 727.843515 
L 464.425 423.156485 
" style="fill:none;stroke:#ffffff;stroke-linecap:square;stroke-linejoin:miter;stroke-width:0.8;"/>
   </g>
   <g id="patch_29">
    <path d="M 853.2 727.843515 
L 853.2 423.156485 
" style="fill:none;stroke:#ffffff;stroke-linecap:square;stroke-linejoin:miter;stroke-width:0.8;"/>
   </g>
   <g id="patch_30">
    <path d="M 464.425 727.843515 
L 853.2 727.843515 
" style="fill:none;stroke:#ffffff;stroke-linecap:square;stroke-linejoin:miter;stroke-width:0.8;"/>
   </g>
   <g id="patch_31">
    <path d="M 464.425 423.156485 
L 853.2 423.156485 
" style="fill:none;stroke:#ffffff;stroke-linecap:square;stroke-linejoin:miter;stroke-width:0.8;"/>
   </g>
   <g id="text_79">
    <!-- throttle -->
    <g style="fill:#ffffff;" transform="translate(636.591875 417.156485)scale(0.12 -0.12)">
     <defs>
      <path d="M 54.890625 33.015625 
L 54.890625 0 
L 45.90625 0 
L 45.90625 32.71875 
Q 45.90625 40.484375 42.875 44.328125 
Q 39.84375 48.1875 33.796875 48.1875 
Q 26.515625 48.1875 22.3125 43.546875 
Q 18.109375 38.921875 18.109375 30.90625 
L 18.109375 0 
L 9.078125 0 
L 9.078125 75.984375 
L 18.109375 75.984375 
L 18.109375 46.1875 
Q 21.34375 51.125 25.703125 53.5625 
Q 30.078125 56 35.796875 56 
Q 45.21875 56 50.046875 50.171875 
Q 54.890625 44.34375 54.890625 33.015625 
z
" id="DejaVuSans-104"/>
     </defs>
     <use xlink:href="#DejaVuSans-116"/>
     <use x="39.208984" xlink:href="#DejaVuSans-104"/>
     <use x="102.587891" xlink:href="#DejaVuSans-114"/>
     <use x="141.451172" xlink:href="#DejaVuSans-111"/>
     <use x="202.632812" xlink:href="#DejaVuSans-116"/>
     <use x="241.841797" xlink:href="#DejaVuSans-116"/>
     <use x="281.050781" xlink:href="#DejaVuSans-108"/>
     <use x="308.833984" xlink:href="#DejaVuSans-101"/>
    </g>
   </g>
  </g>
 </g>
 <defs>
  <clipPath id="p4195889e6d">
   <rect height="304.68703" width="814.34" x="38.86" y="26.88"/>
  </clipPath>
  <clipPath id="p843af44c6e">
   <rect height="304.68703" width="388.775" x="38.86" y="423.156485"/>
  </clipPath>
  <clipPath id="pead0371961">
   <rect height="146.24" width="388.775" x="464.425" y="787.68"/>
  </clipPath>
  <clipPath id="pb3de227a8f">
   <rect height="146.24" width="388.775" x="464.425" y="977.88"/>
  </clipPath>
  <clipPath id="p643fd88c00">
   <rect height="304.68703" width="388.775" x="38.86" y="819.43297"/>
  </clipPath>
  <clipPath id="p348b09f864">
   <rect height="304.68703" width="388.775" x="464.425" y="423.156485"/>
  </clipPath>
 </defs>
</svg>
